<?xml version="1.0" encoding="UTF-8"?>
<svg id="Layer_1" data-name="Layer 1" xmlns="http://www.w3.org/2000/svg" xmlns:xlink="http://www.w3.org/1999/xlink" viewBox="0 0 190.36 190.36">
  <defs>
    <style>
      .cls-1 {
        fill: #fff;
      }

      .cls-2 {
        fill: url(#linear-gradient);
      }
    </style>
    <linearGradient id="linear-gradient" x1="9.05" y1="6.8" x2="181.32" y2="183.57" gradientUnits="userSpaceOnUse">
      <stop offset="0" stop-color="#733fea"/>
      <stop offset="1" stop-color="#0a7fc9"/>
    </linearGradient>
  </defs>
  <rect class="cls-2" width="190.36" height="190.36" rx="27" ry="27"/>
  <path class="cls-1" d="M141.6,54.85c.48-3.92-2.32-6.73-6.24-6.25-20.8,2.55-74.72,13.24-79.02,55.53-.33,2.83-.58,5.66-.77,8.5-.17,2.52,2.87,3.91,4.65,2.12l29.81-29.87c1.22-1.22,3.2-1.22,4.41,0s1.22,3.2,0,4.42l-50.4,50.49c-1.75,1.75-2.04,4.6-.46,6.5,1.79,2.14,4.98,2.24,6.91.31l11.12-11.14s.02-.01.03-.01c8.2-.03,16.39-.5,24.53-1.44,8.07-.82,14.98-3.47,20.91-7.36,1.67-1.09.88-3.69-1.11-3.69h-13.34c-.05,0-.07-.07-.01-.09l28.32-9.46s.02,0,.02-.02c1.3-1.72,2.51-3.5,3.66-5.34,1.05-1.68-.13-3.86-2.11-3.86h-11.24s-.07-.07-.02-.09l20.57-10.3s.02-.01.02-.02c6.03-14.72,8.66-29.93,9.76-38.94Z"/>
</svg>