<?xml version="1.0" encoding="UTF-8"?>
<svg id="Layer_1" data-name="Layer 1" xmlns="http://www.w3.org/2000/svg" xmlns:xlink="http://www.w3.org/1999/xlink" viewBox="0 0 179 179">
  <defs>
    <style>
      .cls-1 {
        fill: #fff;
      }

      .cls-2 {
        fill: url(#linear-gradient);
      }
    </style>
    <linearGradient id="linear-gradient" x1="8.97" y1="6.87" x2="170.03" y2="172.13" gradientUnits="userSpaceOnUse">
      <stop offset="0" stop-color="#733fea"/>
      <stop offset="1" stop-color="#0a7fc9"/>
    </linearGradient>
  </defs>
  <rect class="cls-2" width="179" height="179" rx="27" ry="27"/>
  <path class="cls-1" d="M133.15,51.58c.45-3.69-2.18-6.32-5.87-5.87-19.56,2.4-70.26,12.45-74.3,52.21-.31,2.66-.54,5.33-.73,8-.16,2.37,2.7,3.68,4.37,2l28.03-28.08c1.15-1.15,3.01-1.15,4.15,0s1.15,3.01,0,4.16l-47.39,47.48c-1.64,1.65-1.92,4.33-.43,6.11,1.68,2.01,4.68,2.11,6.49.29l10.46-10.47s.02-.01.03-.01c7.71-.03,15.41-.47,23.06-1.35,7.59-.77,14.09-3.27,19.66-6.92,1.57-1.03.83-3.47-1.05-3.47h-12.54c-.05,0-.06-.07-.01-.09l26.63-8.89s.02,0,.02-.02c1.22-1.62,2.36-3.29,3.44-5.02.99-1.58-.12-3.63-1.98-3.63h-10.57s-.06-.06-.02-.08l19.34-9.69s.02-.01.02-.02c5.67-13.84,8.14-28.15,9.18-36.62Z"/>
</svg>