<?xml version="1.0" encoding="UTF-8"?>
<svg id="Layer_1" data-name="Layer 1" xmlns="http://www.w3.org/2000/svg" xmlns:xlink="http://www.w3.org/1999/xlink" viewBox="0 0 179.5 179.5">
  <defs>
    <style>
      .cls-1 {
        fill: url(#linear-gradient);
      }
    </style>
    <linearGradient id="linear-gradient" x1="0" y1="89.75" x2="179.5" y2="89.75" gradientUnits="userSpaceOnUse">
      <stop offset="0" stop-color="#733fea"/>
      <stop offset="1" stop-color="#0a7fc9"/>
    </linearGradient>
  </defs>
  <path class="cls-1" d="M179.4,11.37c.87-7.08-4.2-12.14-11.3-11.28C130.42,4.69,32.76,24.01,24.98,100.34c-.59,5.11-1.04,10.22-1.4,15.35-.32,4.55,5.2,7.06,8.43,3.83l54-53.91c2.21-2.2,5.79-2.2,7.99,0s2.21,5.78,0,7.98L2.71,164.73c-3.16,3.16-3.7,8.3-.83,11.73,3.24,3.86,9.02,4.04,12.51.56l20.14-20.11s.04-.02.06-.02c14.85-.05,29.68-.89,44.43-2.6,14.62-1.49,27.13-6.27,37.87-13.28,3.02-1.97,1.59-6.66-2.02-6.66h-24.16c-.1,0-.12-.14-.03-.17l51.29-17.07s.03-.02.04-.03c2.35-3.11,4.55-6.33,6.63-9.64,1.9-3.03-.23-6.97-3.82-6.97h-20.36c-.09,0-.12-.12-.04-.16l37.25-18.6s.03-.03.04-.04c10.93-26.57,15.68-54.04,17.68-70.3Z"/>
</svg>