<?xml version="1.0" encoding="UTF-8"?>
<svg id="Layer_1" data-name="Layer 1" xmlns="http://www.w3.org/2000/svg" xmlns:xlink="http://www.w3.org/1999/xlink" viewBox="0 0 15.5 15.5">
  <defs>
    <style>
      .cls-1 {
        fill: url(#linear-gradient);
      }
    </style>
    <linearGradient id="linear-gradient" x1="0" y1="7.75" x2="15.5" y2="7.75" gradientUnits="userSpaceOnUse">
      <stop offset="0" stop-color="#733fea"/>
      <stop offset="1" stop-color="#0a7fc9"/>
    </linearGradient>
  </defs>
  <path class="cls-1" d="M15.49,1.28c.1-.74-.53-1.37-1.27-1.27C10.76.48,2.82,2.25,2.17,8.65c-.09.81-.15,1.63-.18,2.45l5.46-5.46c.19-.19.5-.19.69,0s.19.5,0,.69L.21,14.25c-.29.29-.29.75,0,1.04.29.29.75.29,1.04,0l1.43-1.43c.2-.2.48-.32.77-.32,1.14-.02,2.27-.09,3.4-.22,1.63-.17,2.96-.81,4.05-1.73h-3.08l4.13-1.37c.23-.08.44-.22.58-.42.26-.36.49-.74.71-1.14h-2.48l2.86-1.43c.25-.13.46-.35.56-.61.76-2,1.14-4,1.32-5.34Z"/>
</svg>