<?xml version="1.0" encoding="UTF-8"?>
<svg id="Layer_1" data-name="Layer 1" xmlns="http://www.w3.org/2000/svg" xmlns:xlink="http://www.w3.org/1999/xlink" viewBox="0 0 1000 1000">
  <defs>
    <style>
      .cls-1 {
        fill: #fff;
      }

      .cls-2 {
        fill: url(#linear-gradient);
        stroke: url(#linear-gradient-2);
        stroke-miterlimit: 10;
      }
    </style>
    <linearGradient id="linear-gradient" x1="54.42" y1="42.78" x2="945.58" y2="957.22" gradientUnits="userSpaceOnUse">
      <stop offset="0" stop-color="#733fea"/>
      <stop offset="1" stop-color="#0a7fc9"/>
    </linearGradient>
    <linearGradient id="linear-gradient-2" x1="13.01" y1="500" x2="986.99" y2="500" gradientUnits="userSpaceOnUse">
      <stop offset="0" stop-color="#fff"/>
      <stop offset="1" stop-color="#000"/>
    </linearGradient>
  </defs>
  <rect class="cls-2" x="13.51" y="14.88" width="972.98" height="970.23" rx="117.19" ry="117.19"/>
  <path class="cls-1" d="M740.63,299.02c3.19-23.35-16.82-43.25-40.17-40.07-108.26,14.78-353.74,70.23-373.97,268.92-1.89,16.35-3.25,32.75-4.28,49.17-.6,9.57,11,14.76,17.77,7.98l150.72-150.83c5.94-5.95,15.58-5.95,21.52,0,5.94,5.95,5.94,15.59,0,21.53l-246.5,246.68c-8.91,8.92-8.91,23.38,0,32.3,8.91,8.92,23.36,8.92,32.28,0l51.25-51.29c1.93-1.93,4.65-3.79,7.28-3.04,38.88,11.12,66.35,16.92,104.66,12.49,38.5-3.92,89.07-26.04,110.77-54.09,6.35-8.21,4.68-19.18-5.7-19.18h0c-11.84,0-14.54-16.6-3.3-20.34l51.66-17.23c18.49-6.17,43.3-22.07,53.64-38.6.6-.96,1.2-1.93,1.79-2.9,4.25-6.93-.79-15.85-8.92-15.85l-23.68,3.58c-11.01,0-14.52-14.84-4.67-19.77l58.15-29.09c2.28-1.14,4.07-3.07,5.02-5.43,26.06-64.8,38.71-131.12,44.69-174.93Z"/>
</svg>